<svg xmlns="http://www.w3.org/2000/svg" viewBox="0 0 512 512">
  <defs>
    <radialGradient id="glow" cx="50%" cy="60%" r="60%">
      <stop offset="0%" stop-color="#7b2fca" stop-opacity="0.5"/>
      <stop offset="40%" stop-color="#164e63" stop-opacity="0.3"/>
      <stop offset="100%" stop-color="#000000" stop-opacity="0"/>
    </radialGradient>
    <radialGradient id="glow2" cx="30%" cy="50%" r="50%">
      <stop offset="0%" stop-color="#065f46" stop-opacity="0.35"/>
      <stop offset="100%" stop-color="#000000" stop-opacity="0"/>
    </radialGradient>
  </defs>
  <rect width="512" height="512" rx="80" fill="#000000"/>
  <rect width="512" height="512" rx="80" fill="url(#glow)"/>
  <rect width="512" height="512" rx="80" fill="url(#glow2)"/>
  <!-- "bc" in Inter Variable 700, size 300, letter-spacing -15, baseline y=366, x-center 256 -->
  <path fill="white" aria-label="bc" d="m 194.43262,369.22266 q -10.10742,0 -18.89649,-2.92969 -8.78906,-2.92969 -15.67383,-8.93555 -6.73828,-6.15234 -11.27929,-15.08789 h -0.14649 V 366 H 105.80957 V 147.73828 h 43.21289 v 84.96094 h 0.14649 q 4.98046,-8.34961 11.71875,-13.76953 6.73828,-5.41992 15.23437,-8.05664 8.64258,-2.78321 18.60352,-2.78321 19.77539,0 34.71679,10.25391 15.08789,10.10742 23.4375,28.27148 8.4961,18.01758 8.4961,41.89454 0,24.16992 -8.34961,42.33398 -8.34961,18.16406 -23.29102,28.27148 -14.9414,10.10743 -35.30273,10.10743 z M 183.2998,334.06641 q 10.54688,0 18.16407,-5.27344 7.76367,-5.41992 12.01172,-15.52735 4.39453,-10.2539 4.39453,-24.75585 0,-14.50196 -4.39453,-24.60938 -4.24805,-10.10742 -12.01172,-15.52734 -7.61719,-5.41993 -18.16407,-5.41993 -10.83984,0 -19.18945,5.7129 -8.20312,5.5664 -12.74414,15.82031 -4.39453,10.10742 -4.39453,24.02344 0,13.76953 4.39453,24.02343 4.54102,10.25391 12.74414,15.9668 8.34961,5.56641 19.18945,5.56641 z m 157.70508,35.44921 q -23.14453,0 -40.72265,-10.10742 -17.43164,-10.2539 -27.2461,-28.41797 -9.66797,-18.31054 -9.66797,-42.1875 0,-24.02343 9.66797,-42.1875 9.81446,-18.31054 27.2461,-28.56445 17.57812,-10.25391 40.72265,-10.25391 15.23438,0 28.125,4.54102 12.89063,4.39453 22.41211,12.59766 9.66797,8.20312 15.38086,19.48242 5.71289,11.13281 6.73828,24.75586 h -41.74804 q -0.87891,-6.00586 -3.36914,-10.83985 -2.34375,-4.83398 -6.15235,-8.34961 -3.80859,-3.51562 -9.08203,-5.41992 -5.12695,-1.90429 -11.71875,-1.90429 -10.83984,0 -18.60352,5.71289 -7.76367,5.5664 -12.01171,15.96679 -4.10157,10.25391 -4.10157,24.46289 0,14.0625 4.10157,24.31641 4.24804,10.25391 12.01171,15.9668 7.76368,5.5664 18.60352,5.5664 6.5918,0 11.71875,-1.90429 5.12695,-1.9043 8.78906,-5.41993 3.8086,-3.51562 6.15235,-8.3496 2.34375,-4.98047 3.36914,-11.13282 h 42.04101 q -0.73242,13.47657 -6.44531,24.75586 -5.56641,11.13281 -15.23437,19.48242 -9.66797,8.34961 -22.70508,12.89063 -12.89063,4.54101 -28.27149,4.54101 z"/>
</svg>
